<svg width="121" height="30" viewBox="0 0 121 30" fill="none" xmlns="http://www.w3.org/2000/svg">
<path d="M10.5231 28.714C8.47952 28.714 6.67991 28.22 5.09381 27.2011C3.50772 26.1823 2.28764 24.8237 1.37258 23.1874C0.457528 21.5201 0 19.6676 0 17.6607C0 15.6538 0.427026 13.8322 1.31158 12.2266C2.19614 10.5902 3.41621 9.26261 5.00231 8.27461C6.58841 7.2866 8.38802 6.76172 10.4621 6.76172C12.4143 6.76172 14.1224 7.22485 15.5865 8.15111C16.8065 8.86124 17.7521 9.81837 18.4841 10.9608C18.7587 11.393 18.5451 11.9488 18.0876 12.1031L16.8675 12.5045C16.532 12.5971 16.1965 12.4736 16.0135 12.1649C15.4645 11.3313 14.7324 10.652 13.8174 10.158C12.7803 9.54049 11.6212 9.23174 10.3401 9.23174C8.93705 9.23174 7.62547 9.60224 6.4969 10.3432C5.36833 11.0843 4.45327 12.1031 3.78223 13.3999C3.11119 14.6658 2.77567 16.1169 2.77567 17.6916C2.77567 19.2971 3.11119 20.7482 3.81274 22.045C4.51428 23.3417 5.42934 24.3915 6.58841 25.1634C7.74748 25.9352 8.99805 26.3058 10.4011 26.3058C11.3162 26.3058 12.2008 26.1514 13.0548 25.8117C13.9089 25.4721 14.6409 25.0399 15.2509 24.515C15.678 24.1136 16.0135 23.6814 16.2575 23.2491C16.41 22.9404 16.776 22.786 17.1116 22.8786L18.3316 23.2491C18.7892 23.3726 19.0027 23.8975 18.7892 24.3297C18.4231 25.009 17.9351 25.6265 17.3251 26.2131C16.471 26.985 15.4645 27.6334 14.2749 28.0656C13.1158 28.4979 11.8347 28.714 10.5231 28.714Z" fill="#222F3E"/>
<path d="M45.5089 27.8495L37.6394 8.21284C37.4259 7.71884 37.7919 7.16309 38.3409 7.16309H39.561C39.866 7.16309 40.1405 7.34834 40.2625 7.65709L46.7594 24.3915C46.912 24.8237 47.522 24.8237 47.6745 24.3915L54.2019 7.65709C54.3239 7.37921 54.5984 7.16309 54.9034 7.16309H55.971C56.4895 7.16309 56.8556 7.71884 56.6726 8.21284L48.8031 27.8495C48.6811 28.1274 48.4065 28.3126 48.1015 28.3126H46.1799C45.8749 28.3435 45.6004 28.1583 45.5089 27.8495Z" fill="#222F3E"/>
<path d="M66.5549 28.714C64.5418 28.714 62.7422 28.22 61.1866 27.2011C59.6005 26.2131 58.3499 24.8546 57.4654 23.1874C56.5503 21.5201 56.0928 19.6676 56.0928 17.6607C56.0928 15.6847 56.5198 13.863 57.4044 12.2266C58.3194 10.5902 59.57 9.26261 61.1256 8.27461C62.7117 7.2866 64.4808 6.76172 66.4939 6.76172C68.568 6.76172 70.3677 7.25572 71.9233 8.27461C73.4789 9.26261 74.6684 10.5903 75.5225 12.2575C76.407 13.8939 76.8341 15.6538 76.8341 17.6298C76.8341 17.7533 76.8341 17.8768 76.8341 17.9694C76.8341 18.3708 76.4985 18.7104 76.0715 18.7104H59.448C59.143 18.7104 58.8989 18.9883 58.96 19.2662C59.143 20.563 59.5395 21.7362 60.18 22.7551C60.9121 23.9284 61.8271 24.8546 62.9557 25.5647C64.0843 26.244 65.3043 26.5836 66.6464 26.5836C68.019 26.5836 69.3001 26.244 70.4897 25.5339C71.5267 24.9472 72.2893 24.1754 72.8078 23.2491C72.9603 22.9712 73.3263 22.8477 73.6314 22.9095L74.5159 23.1565C74.9734 23.28 75.2175 23.8357 74.9734 24.268C74.5769 24.9472 74.0584 25.5956 73.3873 26.1514C72.5028 26.9233 71.4657 27.5716 70.3067 28.0039C69.2086 28.4979 67.9275 28.714 66.5549 28.714ZM59.4175 16.7344H74.3024C74.1804 15.2215 73.7839 13.8939 73.0518 12.7206C72.3198 11.5165 71.4047 10.6211 70.2762 9.97274C69.1476 9.29349 67.897 8.95386 66.5549 8.95386C65.1823 8.95386 63.9623 9.29349 62.8337 9.97274C61.7051 10.6211 60.7901 11.5474 60.058 12.7206C59.448 13.7395 59.0515 14.8819 58.899 16.1787C58.8684 16.4565 59.1125 16.7344 59.4175 16.7344Z" fill="#222F3E"/>
<path d="M88.6992 26.6145C88.8213 26.985 88.6382 27.3863 88.2722 27.5407C87.9672 27.6642 87.6012 27.8186 87.1437 28.0039C86.2896 28.3435 85.3135 28.5287 84.185 28.5287C82.9954 28.5287 81.9888 28.1891 81.1043 27.5099C80.2197 26.8306 79.7927 25.8117 79.7927 24.4532V9.84921C79.7927 9.57133 79.5792 9.3552 79.3047 9.3552H77.6576C77.2305 9.3552 76.895 9.01557 76.895 8.58332V7.90407C76.895 7.47181 77.2305 7.13218 77.6576 7.13218H79.3047C79.5792 7.13218 79.7927 6.91606 79.7927 6.63818V0.771881C79.7927 0.339628 80.1282 0 80.5552 0H81.7753C82.2023 0 82.5379 0.339628 82.5379 0.771881V6.66905C82.5379 6.94693 82.7514 7.16306 83.0259 7.16306H86.5946C87.0216 7.16306 87.3572 7.50269 87.3572 7.93494V8.6142C87.3572 9.04645 87.0216 9.38608 86.5946 9.38608H83.0259C82.7514 9.38608 82.5379 9.6022 82.5379 9.88008V23.7431C82.5989 24.515 82.8734 25.1016 83.3309 25.503C83.8495 25.8426 84.429 26.0278 85.0695 26.0278C85.8321 26.0278 86.4726 25.9043 87.0826 25.6573C87.2352 25.5956 87.3877 25.5338 87.5097 25.4721C87.9062 25.2868 88.3942 25.503 88.5162 25.9352L88.6992 26.6145Z" fill="#222F3E"/>
<path d="M100.137 26.6145C100.259 26.985 100.076 27.3863 99.7104 27.5407C99.4054 27.6642 99.0394 27.8186 98.5819 28.0039C97.7278 28.3435 96.7518 28.5287 95.6232 28.5287C94.4336 28.5287 93.427 28.1891 92.5425 27.5099C91.6579 26.8306 91.2309 25.8117 91.2309 24.4532V9.84921C91.2309 9.57133 91.0174 9.3552 90.7429 9.3552H89.0653C88.6383 9.3552 88.3027 9.01557 88.3027 8.58332V7.90407C88.3027 7.47181 88.6383 7.13218 89.0653 7.13218H90.7124C90.9869 7.13218 91.2004 6.91606 91.2004 6.63818V0.771881C91.2004 0.339628 91.5359 0 91.963 0H93.183C93.6101 0 93.9456 0.339628 93.9456 0.771881V6.66905C93.9456 6.94693 94.1591 7.16306 94.4336 7.16306H98.0023C98.4294 7.16306 98.7649 7.50269 98.7649 7.93494V8.6142C98.7649 9.04645 98.4294 9.38608 98.0023 9.38608H94.4336C94.1591 9.38608 93.9456 9.6022 93.9456 9.88008V23.7431C94.0066 24.515 94.2811 25.1016 94.7386 25.503C95.2572 25.8426 95.8367 26.0278 96.4772 26.0278C97.2398 26.0278 97.8803 25.9043 98.4904 25.6573C98.6429 25.5956 98.7954 25.5338 98.9174 25.4721C99.3139 25.2868 99.8019 25.503 99.924 25.9352L100.137 26.6145Z" fill="#222F3E"/>
<path d="M109.807 28.5905C107.794 28.5905 105.994 28.0965 104.439 27.0776C102.852 26.0896 101.602 24.7311 100.717 23.0638C99.8023 21.3966 99.3447 19.544 99.3447 17.5371C99.3447 15.5611 99.7717 13.7395 100.656 12.1031C101.571 10.4667 102.822 9.13908 104.378 8.15107C105.964 7.16306 107.733 6.63818 109.746 6.63818C111.82 6.63818 113.62 7.13219 115.175 8.15107C116.731 9.13908 117.92 10.4667 118.774 12.134C119.659 13.7704 120.086 15.5303 120.086 17.5063C120.086 17.6298 120.086 17.7533 120.086 17.8459C120.086 18.2473 119.75 18.5869 119.323 18.5869H102.7C102.395 18.5869 102.151 18.8648 102.212 19.1427C102.395 20.4394 102.791 21.5818 103.432 22.6316C104.164 23.8048 105.079 24.7311 106.208 25.4412C107.336 26.1205 108.556 26.4601 109.898 26.4601C111.271 26.4601 112.552 26.1205 113.742 25.4103C114.779 24.8237 115.541 24.0518 116.06 23.1256C116.212 22.8477 116.578 22.7242 116.883 22.7859L117.768 23.0329C118.225 23.1564 118.469 23.7122 118.225 24.1445C117.829 24.8237 117.31 25.4721 116.639 26.0278C115.755 26.7997 114.718 27.4481 113.559 27.8804C112.43 28.3744 111.149 28.5905 109.807 28.5905ZM102.639 16.6109H116.975C117.28 16.6109 117.524 16.333 117.463 16.0551C117.31 14.7584 116.914 13.616 116.273 12.5971C115.541 11.393 114.626 10.4976 113.498 9.84921C112.369 9.16995 111.118 8.83033 109.776 8.83033C108.404 8.83033 107.184 9.16995 106.055 9.84921C104.927 10.4976 104.012 11.4238 103.279 12.5971C102.669 13.616 102.273 14.7584 102.12 16.0551C102.12 16.3639 102.364 16.6109 102.639 16.6109Z" fill="#222F3E"/>
<path d="M35.6875 7.00866L37.8226 24.6384C38.0361 26.3057 36.8465 27.8186 35.1994 28.0347L25.5608 29.2388C23.9137 29.455 22.4191 28.2508 22.2056 26.5836L20.04 8.79942C20.0095 8.49067 20.223 8.18192 20.5585 8.15104L22.1141 7.96579C22.4191 7.93491 22.7242 8.15104 22.7547 8.49067L24.7678 25.0089C24.8593 25.8426 25.6218 26.4292 26.4454 26.3366L33.6743 25.4412C34.4979 25.3486 35.0774 24.5767 34.9859 23.743L32.9728 7.16303C32.9423 6.85428 33.1558 6.54553 33.4913 6.51465L34.8944 6.3294C35.2604 6.26765 35.657 6.5764 35.6875 7.00866Z" fill="#ACBAC9"/>
<path d="M32.5151 23.8048L27.1773 24.4531C26.8113 24.5149 26.4452 24.237 26.4147 23.8356L25.7437 18.3707L25.2862 14.5422C25.2557 14.3878 25.4082 14.2952 25.5302 14.3261L26.3232 14.5731C27.9093 15.0362 29.5869 15.0053 31.1425 14.4187L31.7831 14.1717C31.9051 14.1408 32.0271 14.2026 32.0271 14.3261L33.0642 23.002C33.1557 23.4034 32.8811 23.7739 32.5151 23.8048Z" fill="#0B66EF"/>
</svg>
